<?xml version="1.0" encoding="UTF-8" standalone="no"?>
<!-- Created with Inkscape (http://www.inkscape.org/) -->
<svg xmlns:dc="http://purl.org/dc/elements/1.1/" xmlns:cc="http://web.resource.org/cc/" xmlns:rdf="http://www.w3.org/1999/02/22-rdf-syntax-ns#" xmlns:svg="http://www.w3.org/2000/svg" xmlns="http://www.w3.org/2000/svg" xmlns:sodipodi="http://sodipodi.sourceforge.net/DTD/sodipodi-0.dtd" xmlns:inkscape="http://www.inkscape.org/namespaces/inkscape" width="221.59546" height="275.65594" id="svg3347" sodipodi:version="0.32" inkscape:version="0.45.1" sodipodi:docbase="/home/guillom/wikimedia" sodipodi:docname="fleur.svg" inkscape:output_extension="org.inkscape.output.svg.inkscape" version="1.0">
  <defs id="defs3349">
	
	
	
	
</defs>
  <sodipodi:namedview id="base" pagecolor="#ffffff" bordercolor="#666666" borderopacity="1.0" inkscape:pageopacity="0.0" inkscape:pageshadow="2" inkscape:zoom="0.31033958" inkscape:cx="496.51438" inkscape:cy="500.96281" inkscape:document-units="px" inkscape:current-layer="layer1" showguides="true" inkscape:guide-bbox="true" inkscape:window-width="822" inkscape:window-height="592" inkscape:window-x="0" inkscape:window-y="23"/>
  <metadata id="metadata3352">
    <rdf:RDF>
      <cc:Work rdf:about="">
        <dc:format>image/svg+xml</dc:format>
        <dc:type rdf:resource="http://purl.org/dc/dcmitype/StillImage"/>
      </cc:Work>
    </rdf:RDF>
  </metadata>
  <g inkscape:label="Calque 1" inkscape:groupmode="layer" id="layer1" transform="translate(-198.539, -447.615)">
    <path style="fill: rgb(0, 117, 61); fill-opacity: 1; stroke: none; stroke-width: 0.536361;" d="M 337.59933,527.99697 C 332.08615,522.72189 321.54769,532.44211 319.10941,535.57244 C 314.48677,541.51508 309.6731,550.10769 305.5559,559.94745 C 300.92118,571.02084 296.13651,587.40089 292.51627,602.87884 C 289.44621,616.00229 287.68386,632.07788 285.39431,646.8612 C 283.25106,660.70181 281.36053,675.49416 280.01958,690.69471 C 278.81827,704.31656 281.14047,715.09227 283.9149,700.09018 C 285.85379,689.61894 287.04058,677.78778 288.37309,666.26558 C 291.6354,638.05209 295.99928,612.29235 302.2718,591.91596 C 309.0419,569.92477 317.4843,555.10537 326.37165,550.17534 C 329.80687,548.26738 332.66957,549.22361 336.04072,550.18435" id="path3910"/>
    <path style="fill: rgb(255, 255, 255);" id="path4194" d=""/>
    <path style="fill: rgb(63, 125, 58); fill-opacity: 1;" d="M 231.25987,546.68088 C 274.01041,585.17858 269.40227,651.35316 270.64376,704.54281 C 275.2328,699.3748 271.43494,701.4406 275.89704,697.53191 C 270.48367,593.34259 265.17668,579.0225 263.09296,537.37407 C 255.55076,574.72495 233.00086,519.32832 207.70289,522.66156 C 207.7049,522.65987 226.21707,542.14146 231.25987,546.68088 z " id="path4652" sodipodi:nodetypes="cccccc"/>
    <path style="fill: rgb(63, 125, 58); fill-opacity: 1;" d="M 338.29653,581.37078 C 310.6962,615.77952 313.67127,674.92547 312.86976,722.46568 C 309.90701,717.84658 312.35896,719.69297 309.47817,716.19943 C 312.97312,623.0764 316.39937,610.27729 317.74466,573.05247 C 322.61399,606.43619 337.17253,556.92342 353.50524,559.90264 C 353.50394,559.90111 341.55223,577.31351 338.29653,581.37078 z " id="path4704" sodipodi:nodetypes="cccccc"/>
    <g id="g4676" transform="matrix(0.670154, 0, 0, 0.670154, -225.823, 471.018)">
      <path style="fill: rgb(7, 81, 129); fill-opacity: 1; stroke: rgb(0, 0, 0); stroke-width: 0.5267;" d="M 722.4214,38.928926 C 726.3914,38.817926 729.7694,35.234926 734.3814,35.066926 C 738.3454,34.922926 743.3324,34.391926 746.9834,32.560926 C 749.8644,31.113926 750.8164,29.354926 754.2624,28.828926 C 757.4624,28.339926 760.9114,28.840926 764.1054,28.501926 C 762.2134,28.701926 756.3614,24.346926 754.1444,23.541926 C 749.9364,22.013926 745.2694,20.902926 740.8114,21.943926 C 732.9284,23.782926 724.4264,30.912926 722.4214,38.928926 z " id="path3812"/>
      <path style="fill: rgb(7, 81, 129); fill-opacity: 1; stroke: rgb(0, 0, 0); stroke-width: 0.5267;" d="M 950.7704,80.266926 C 947.2144,76.703926 940.4474,77.911926 937.5584,74.238926 C 934.2464,70.030926 935.1204,62.367926 931.9124,57.379926 C 930.2874,54.854926 928.7504,52.787926 926.4924,50.756926 C 923.5514,48.107926 923.6584,49.326926 923.7134,44.944926 C 923.8544,34.367926 917.8754,25.731926 906.9164,23.431926 C 902.2604,22.454926 899.9294,22.156926 896.2994,19.334926 C 891.1194,15.307926 886.1024,15.428926 880.0014,13.401926 C 865.4774,8.574926 850.5664,1.151926 835.4414,0.783926 C 828.7244,0.619926 817.5674,4.763926 811.3024,2.192926 C 806.3274,0.151926 807.3914,-3.086074 801.0264,-1.749074 C 792.3224,0.078926 782.1654,0.590926 775.4194,-6.253074 C 768.6984,-13.073074 771.0334,-20.531074 778.7404,-24.946074 C 799.1304,-36.625074 814.1674,-27.009074 832.6544,-17.014074 C 838.0174,-14.116074 843.4534,-13.486074 849.3774,-12.291074 C 855.2954,-11.096074 861.0984,-10.403074 866.8444,-8.584074 C 871.9224,-6.976074 876.7964,-6.572074 881.6134,-4.389074 C 886.2064,-2.309074 891.0524,-0.613074 895.9744,0.482926 C 912.4364,4.147926 924.7604,15.649926 935.9914,27.905926 C 944.8564,37.577926 957.7184,53.363926 956.8874,67.031926 C 956.5144,73.144926 957.3044,76.267926 959.4784,81.660926 C 960.4114,83.975926 961.5474,87.842926 958.5584,88.668926 C 954.8084,89.706926 952.7974,82.298926 950.7704,80.266926 z " id="path3814"/>
      <path style="fill: rgb(183, 242, 250); fill-opacity: 1; stroke: rgb(0, 0, 0); stroke-width: 0.5267;" d="M 900.2684,16.863926 C 911.8534,10.412926 924.4154,2.565926 935.5344,13.807926 C 940.1244,18.448926 944.7454,23.156926 948.4664,28.545926 C 951.7144,33.249926 952.9344,38.143926 955.1544,43.192926 C 957.4514,48.416926 959.0144,52.085926 959.2044,58.007926 C 959.3664,63.076926 958.8224,68.225926 959.7784,73.240926 C 960.6334,77.711926 964.0144,83.324926 963.5944,87.800926 C 958.6394,89.260926 957.1454,84.370926 956.0064,80.801926 C 954.3264,75.528926 952.7174,70.190926 948.8184,66.087926 C 944.4744,61.515926 938.8514,60.648926 932.4574,61.183926 C 913.2834,62.789926 892.4784,68.031926 877.7864,81.221926 C 868.7364,89.345926 862.1544,99.874926 852.4004,107.26893 C 848.0334,110.57893 844.0764,113.76493 838.9234,115.43493 C 829.2354,118.57293 815.7454,118.56693 808.7694,110.32593 C 804.6484,105.45693 802.4744,98.610926 800.4684,92.586926 C 796.2554,79.938926 795.7494,66.459926 789.4554,54.479926 C 783.8354,43.778926 775.7474,33.846926 764.6474,28.564926 C 753.2904,23.163926 744.0004,19.393926 733.5964,28.736926 C 730.8364,31.215926 727.5714,36.420926 724.3194,37.908926 C 719.2934,40.206926 719.8704,35.005926 720.0424,30.421926 C 720.7504,11.435926 739.8974,8.564926 749.8474,-4.790074 C 752.0654,-7.769074 752.6304,-11.450074 754.2184,-14.489074 C 758.8424,-23.347074 770.9474,-27.088074 780.1334,-28.367074 C 791.3024,-29.921074 801.7634,-21.255074 808.2594,-12.856074 C 815.5344,-3.448074 818.1594,9.107926 820.3214,20.497926 C 821.9834,29.260926 822.5224,38.046926 824.2274,46.633926 C 825.6054,53.580926 826.8154,62.662926 826.2974,69.722926 C 826.1114,61.403926 825.4254,53.257926 824.8074,45.015926 C 823.9814,33.982926 824.5554,22.414926 822.0854,11.600926 C 819.6264,0.839926 814.1354,-9.394074 807.5894,-18.211074 C 804.5024,-22.368074 796.4394,-29.039074 791.0954,-28.972074 C 792.7094,-36.068074 806.4824,-35.028074 811.4174,-33.694074 C 831.8484,-28.171074 846.7764,-12.504074 868.8554,-11.645074 C 879.7954,-11.219074 893.1144,-16.432074 903.1164,-10.858074 C 906.1004,-9.196074 908.5264,-6.545074 911.3724,-4.666074 C 913.7264,-3.115074 919.1584,-0.437074 918.7424,3.082926 C 918.2974,6.854926 909.3784,10.050926 906.5484,11.576926 C 900.8594,14.639926 895.9084,18.701926 890.6794,22.454926 C 877.7144,31.753926 865.0604,45.242926 855.5814,58.042926 C 857.1434,53.526926 862.4934,48.654926 865.7474,45.252926 C 871.8034,38.914926 878.7814,32.522926 885.5364,26.901926 C 890.1104,23.099926 895.0664,19.761926 900.2684,16.863926 z " id="path3816"/>
      <path style="fill: rgb(189, 171, 223); fill-opacity: 1;" d="M 801.9474,70.311926 C 805.5394,78.767926 808.6774,87.199926 811.5924,95.884926 C 812.7734,99.402926 814.0274,108.37693 819.6734,106.85493 C 820.0264,102.85993 817.8704,97.806926 816.8414,93.836926 C 814.5904,85.149926 813.8714,76.171926 813.5874,67.164926 C 813.5324,74.212926 817.2184,82.615926 819.7934,89.042926 C 820.9824,92.010926 821.8984,96.378926 824.2114,98.267926 C 824.1854,93.983926 823.3994,89.610926 823.5664,85.255926 C 827.3694,87.091926 830.7924,92.054926 835.1654,89.263926 C 838.9574,86.844926 841.3784,79.369926 843.1904,75.458926 C 839.6244,82.548926 834.0584,89.360926 832.3644,97.518926 C 834.5444,97.971926 835.0464,95.836926 836.5094,94.460926 C 841.2254,90.029926 845.5424,85.547926 849.6954,80.576926 C 858.2424,70.347926 868.6954,63.601926 878.0094,54.472926 C 874.6064,58.794926 870.0684,62.084926 866.0774,65.832926 C 861.1554,70.459926 856.9384,75.786926 852.4954,80.869926 C 847.5824,86.490926 843.7064,93.046926 838.6824,98.535926 C 849.1594,92.957926 857.7044,81.303926 866.9644,73.689926 C 873.3694,68.424926 881.8474,61.832926 889.6894,59.010926 C 877.8884,68.716926 867.0054,79.053926 855.6934,89.270926 C 849.8284,94.570926 843.2554,98.173926 836.9764,102.84293 C 834.5744,104.62893 830.8144,107.04793 829.4664,109.80693 C 837.5574,105.37893 845.1324,101.72493 852.2534,95.563926 C 861.8314,87.276926 870.6014,77.775926 881.2164,70.746926 C 893.1874,62.817926 906.3434,57.870926 920.2794,54.597926 C 925.0974,53.464926 930.7864,51.064926 935.8374,51.652926 C 930.6004,49.529926 919.6804,51.168926 914.0244,51.970926 C 908.2164,52.796926 902.0674,54.992926 896.2054,54.644926 C 908.4104,46.965926 922.4144,39.485926 936.5704,36.295926 C 921.3594,42.268926 905.3334,46.168926 890.2124,52.476926 C 881.1614,56.253926 873.4184,62.760926 865.3724,67.931926 C 878.6564,55.192926 893.2554,42.428926 909.6704,33.877926 C 918.3654,29.349926 925.5024,25.511926 935.2594,25.297926 C 918.3904,25.069926 901.1014,34.314926 887.4394,43.254926 C 874.7834,51.534926 858.0684,61.589926 849.7704,74.744926 C 855.9924,66.319926 861.7164,57.852926 869.0564,50.165926 C 874.2814,44.693926 880.4024,40.482926 886.0044,35.506926 C 874.9544,43.777926 865.8134,53.658926 855.6114,62.836926 C 852.3114,65.804926 845.3044,69.616926 846.1164,62.229926 C 846.6824,57.062926 852.0774,49.772926 854.5984,45.374926 C 859.3904,37.028926 865.9534,29.010926 872.5684,22.032926 C 879.5404,14.675926 887.2024,6.818926 895.7354,1.362926 C 882.8934,6.098926 870.7874,20.216926 862.6884,30.729926 C 856.6534,38.561926 851.3834,47.230926 846.0864,55.211926 C 845.9244,51.724926 847.5784,48.446926 848.9344,45.267926 C 851.7544,38.658926 853.6394,31.838926 855.7234,24.972926 C 858.4704,15.927926 860.6354,5.679926 864.1004,-2.893074 C 863.6704,1.644926 859.7314,6.466926 858.1574,10.814926 C 855.3764,18.499926 852.6934,26.002926 850.3894,33.840926 C 846.7514,46.219926 841.9204,58.237926 838.3854,70.612926 C 840.6514,44.074926 845.4514,13.392926 836.6644,-12.008074 C 841.3094,3.847926 843.6344,21.852926 841.8204,38.446926 C 841.1834,44.282926 839.8674,50.278926 838.4894,55.973926 C 837.9724,58.114926 837.8104,60.254926 836.2334,61.737926 C 834.3584,35.759926 833.5204,10.494926 823.5864,-13.966074 C 826.0704,-6.219074 829.4344,1.091926 831.1884,9.269926 C 833.7724,21.313926 833.5594,33.857926 832.5014,46.061926 C 831.5114,57.483926 829.5744,68.826926 826.9614,79.794926 C 826.4824,79.814926 826.0434,79.832926 825.5614,79.814926 C 822.7874,74.494926 822.3544,68.618926 820.8734,62.780926 C 818.0804,51.765926 815.5454,39.897926 810.0814,29.815926 C 813.3734,40.827926 817.8304,53.737926 817.1394,65.354926 C 815.0814,62.195926 814.2184,58.078926 813.3114,54.378926 C 811.4264,46.679926 808.5224,40.295926 804.8284,33.291926 C 798.0404,20.426926 788.1954,1.496926 773.6284,-4.121074 C 783.2804,4.489926 792.0284,17.918926 797.6564,29.380926 C 804.6434,43.610926 809.5744,57.643926 812.0724,73.166926 C 803.1984,57.039926 794.9984,39.041926 783.6494,24.315926 C 778.8514,18.091926 773.2784,11.019926 766.4164,6.905926 C 764.1744,5.561926 757.7774,1.761926 755.4524,2.986926 C 759.7974,4.807926 762.8034,7.694926 765.8104,11.104926 C 761.6844,11.385926 757.3804,10.255926 753.1824,11.030926 C 749.7154,11.669926 746.3244,13.689926 743.0094,14.759926 C 748.8684,12.522926 756.4454,12.455926 762.4944,14.025926 C 767.3864,15.294926 772.5854,20.064926 776.1554,23.576926 C 788.9304,36.148926 795.0864,54.162926 801.9474,70.311926 z " id="path3818"/>
    </g>
    <g id="g4654" transform="matrix(-0.500819, -0.123113, -0.123113, 0.500819, 394.387, 486.757)">
	<path style="fill: rgb(239, 156, 34); stroke: rgb(0, 0, 0); stroke-width: 0.5267;" d="M 113.983,96.063 C 117.953,95.952 121.331,92.369 125.943,92.201 C 129.907,92.057 134.894,91.526 138.545,89.695 C 141.426,88.248 142.378,86.489 145.824,85.963 C 149.024,85.474 152.473,85.975 155.667,85.636 C 153.775,85.836 147.923,81.481 145.706,80.676 C 141.498,79.148 136.831,78.037 132.373,79.078 C 124.49,80.917 115.988,88.047 113.983,96.063 z " id="path4656"/>

	<path style="fill: rgb(239, 156, 34); stroke: rgb(0, 0, 0); stroke-width: 0.5267;" d="M 342.332,137.401 C 338.776,133.838 332.009,135.046 329.12,131.373 C 325.808,127.165 326.682,119.502 323.474,114.514 C 321.849,111.989 320.312,109.922 318.054,107.891 C 315.113,105.242 315.22,106.461 315.275,102.079 C 315.416,91.502 309.437,82.866 298.478,80.566 C 293.822,79.589 291.491,79.291 287.861,76.469 C 282.681,72.442 277.664,72.563 271.563,70.536 C 257.039,65.709 242.128,58.286 227.003,57.918 C 220.286,57.754 209.129,61.898 202.864,59.327 C 197.889,57.286 198.953,54.048 192.588,55.385 C 183.884,57.213 173.727,57.725 166.981,50.881 C 160.26,44.061 162.595,36.603 170.302,32.188 C 190.692,20.509 205.729,30.125 224.216,40.12 C 229.579,43.018 235.015,43.648 240.939,44.843 C 246.857,46.038 252.66,46.731 258.406,48.55 C 263.484,50.158 268.358,50.562 273.175,52.745 C 277.768,54.825 282.614,56.521 287.536,57.617 C 303.998,61.282 316.322,72.784 327.553,85.04 C 336.418,94.712 349.28,110.498 348.449,124.166 C 348.076,130.279 348.866,133.402 351.04,138.795 C 351.973,141.11 353.109,144.977 350.12,145.803 C 346.37,146.841 344.359,139.433 342.332,137.401 z " id="path4658"/>

	<path style="fill: rgb(242, 202, 32); stroke: rgb(0, 0, 0); stroke-width: 0.5267;" d="M 291.83,73.998 C 303.415,67.547 315.977,59.7 327.096,70.942 C 331.686,75.583 336.307,80.291 340.028,85.68 C 343.276,90.384 344.496,95.278 346.716,100.327 C 349.013,105.551 350.576,109.22 350.766,115.142 C 350.928,120.211 350.384,125.36 351.34,130.375 C 352.195,134.846 355.576,140.459 355.156,144.935 C 350.201,146.395 348.707,141.505 347.568,137.936 C 345.888,132.663 344.279,127.325 340.38,123.222 C 336.036,118.65 330.413,117.783 324.019,118.318 C 304.845,119.924 284.04,125.166 269.348,138.356 C 260.298,146.48 253.716,157.009 243.962,164.403 C 239.595,167.713 235.638,170.899 230.485,172.569 C 220.797,175.707 207.307,175.701 200.331,167.46 C 196.21,162.591 194.036,155.745 192.03,149.721 C 187.817,137.073 187.311,123.594 181.017,111.614 C 175.397,100.913 167.309,90.981 156.209,85.699 C 144.852,80.298 135.562,76.528 125.158,85.871 C 122.398,88.35 119.133,93.555 115.881,95.043 C 110.855,97.341 111.432,92.14 111.604,87.556 C 112.312,68.57 131.459,65.699 141.409,52.344 C 143.627,49.365 144.192,45.684 145.78,42.645 C 150.404,33.787 162.509,30.046 171.695,28.767 C 182.864,27.213 193.325,35.879 199.821,44.278 C 207.096,53.686 209.721,66.242 211.883,77.632 C 213.545,86.395 214.084,95.181 215.789,103.768 C 217.167,110.715 218.377,119.797 217.859,126.857 C 217.673,118.538 216.987,110.392 216.369,102.15 C 215.543,91.117 216.117,79.549 213.647,68.735 C 211.188,57.974 205.697,47.74 199.151,38.923 C 196.064,34.766 188.001,28.095 182.657,28.162 C 184.271,21.066 198.044,22.106 202.979,23.44 C 223.41,28.963 238.338,44.63 260.417,45.489 C 271.357,45.915 284.676,40.702 294.678,46.276 C 297.662,47.938 300.088,50.589 302.934,52.468 C 305.288,54.019 310.72,56.697 310.304,60.217 C 309.859,63.989 300.94,67.185 298.11,68.711 C 292.421,71.774 287.47,75.836 282.241,79.589 C 269.276,88.888 256.622,102.377 247.143,115.177 C 248.705,110.661 254.055,105.789 257.309,102.387 C 263.365,96.049 270.343,89.657 277.098,84.036 C 281.672,80.234 286.628,76.896 291.83,73.998 z " id="path4660"/>

	<path style="fill: rgb(229, 171, 5);" d="M 193.509,127.446 C 197.101,135.902 200.239,144.334 203.154,153.019 C 204.335,156.537 205.589,165.511 211.235,163.989 C 211.588,159.994 209.432,154.941 208.403,150.971 C 206.152,142.284 205.433,133.306 205.149,124.299 C 205.094,131.347 208.78,139.75 211.355,146.177 C 212.544,149.145 213.46,153.513 215.773,155.402 C 215.747,151.118 214.961,146.745 215.128,142.39 C 218.931,144.226 222.354,149.189 226.727,146.398 C 230.519,143.979 232.94,136.504 234.752,132.593 C 231.186,139.683 225.62,146.495 223.926,154.653 C 226.106,155.106 226.608,152.971 228.071,151.595 C 232.787,147.164 237.104,142.682 241.257,137.711 C 249.804,127.482 260.257,120.736 269.571,111.607 C 266.168,115.929 261.63,119.219 257.639,122.967 C 252.717,127.594 248.5,132.921 244.057,138.004 C 239.144,143.625 235.268,150.181 230.244,155.67 C 240.721,150.092 249.266,138.438 258.526,130.824 C 264.931,125.559 273.409,118.967 281.251,116.145 C 269.45,125.851 258.567,136.188 247.255,146.405 C 241.39,151.705 234.817,155.308 228.538,159.977 C 226.136,161.763 222.376,164.182 221.028,166.941 C 229.119,162.513 236.694,158.859 243.815,152.698 C 253.393,144.411 262.163,134.91 272.778,127.881 C 284.749,119.952 297.905,115.005 311.841,111.732 C 316.659,110.599 322.348,108.199 327.399,108.787 C 322.162,106.664 311.242,108.303 305.586,109.105 C 299.778,109.931 293.629,112.127 287.767,111.779 C 299.972,104.1 313.976,96.62 328.132,93.43 C 312.921,99.403 296.895,103.303 281.774,109.611 C 272.723,113.388 264.98,119.895 256.934,125.066 C 270.218,112.327 284.817,99.563 301.232,91.012 C 309.927,86.484 317.064,82.646 326.821,82.432 C 309.952,82.204 292.663,91.449 279.001,100.389 C 266.345,108.669 249.63,118.724 241.332,131.879 C 247.554,123.454 253.278,114.987 260.618,107.3 C 265.843,101.828 271.964,97.617 277.566,92.641 C 266.516,100.912 257.375,110.793 247.173,119.971 C 243.873,122.939 236.866,126.751 237.678,119.364 C 238.244,114.197 243.639,106.907 246.16,102.509 C 250.952,94.163 257.515,86.145 264.13,79.167 C 271.102,71.81 278.764,63.953 287.297,58.497 C 274.455,63.233 262.349,77.351 254.25,87.864 C 248.215,95.696 242.945,104.365 237.648,112.346 C 237.486,108.859 239.14,105.581 240.496,102.402 C 243.316,95.793 245.201,88.973 247.285,82.107 C 250.032,73.062 252.197,62.814 255.662,54.241 C 255.232,58.779 251.293,63.601 249.719,67.949 C 246.938,75.634 244.255,83.137 241.951,90.975 C 238.313,103.354 233.482,115.372 229.947,127.747 C 232.213,101.209 237.013,70.527 228.226,45.126 C 232.871,60.982 235.196,78.987 233.382,95.581 C 232.745,101.417 231.429,107.413 230.051,113.108 C 229.534,115.249 229.372,117.389 227.795,118.872 C 225.92,92.894 225.082,67.629 215.148,43.168 C 217.632,50.915 220.996,58.226 222.75,66.404 C 225.334,78.448 225.121,90.992 224.063,103.196 C 223.073,114.618 221.136,125.961 218.523,136.929 C 218.044,136.949 217.605,136.967 217.123,136.949 C 214.349,131.629 213.916,125.753 212.435,119.915 C 209.642,108.9 207.107,97.032 201.643,86.95 C 204.935,97.962 209.392,110.872 208.701,122.489 C 206.643,119.33 205.78,115.213 204.873,111.513 C 202.988,103.814 200.084,97.43 196.39,90.426 C 189.602,77.561 179.757,58.631 165.19,53.013 C 174.842,61.624 183.59,75.053 189.218,86.515 C 196.205,100.745 201.136,114.778 203.634,130.301 C 194.76,114.174 186.56,96.176 175.211,81.45 C 170.413,75.226 164.84,68.154 157.978,64.04 C 155.736,62.696 149.339,58.896 147.014,60.121 C 151.359,61.942 154.365,64.829 157.372,68.239 C 153.246,68.52 148.942,67.39 144.744,68.165 C 141.277,68.804 137.886,70.824 134.571,71.894 C 140.43,69.657 148.007,69.59 154.056,71.16 C 158.948,72.429 164.147,77.199 167.717,80.711 C 180.492,93.283 186.648,111.297 193.509,127.446 z " id="path4662"/>

</g>
    <g id="g4706" transform="matrix(0.439206, 0.0506482, -0.0507744, 0.438114, -6.84745, 477.777)">
      <path style="fill: rgb(7, 81, 129); fill-opacity: 1; stroke: rgb(0, 0, 0); stroke-width: 0.5267;" d="M 722.4214,38.928926 C 726.3914,38.817926 729.7694,35.234926 734.3814,35.066926 C 738.3454,34.922926 743.3324,34.391926 746.9834,32.560926 C 749.8644,31.113926 750.8164,29.354926 754.2624,28.828926 C 757.4624,28.339926 760.9114,28.840926 764.1054,28.501926 C 762.2134,28.701926 756.3614,24.346926 754.1444,23.541926 C 749.9364,22.013926 745.2694,20.902926 740.8114,21.943926 C 732.9284,23.782926 724.4264,30.912926 722.4214,38.928926 z " id="path4708"/>
      <path style="fill: rgb(7, 81, 129); fill-opacity: 1; stroke: rgb(0, 0, 0); stroke-width: 0.5267;" d="M 950.7704,80.266926 C 947.2144,76.703926 940.4474,77.911926 937.5584,74.238926 C 934.2464,70.030926 935.1204,62.367926 931.9124,57.379926 C 930.2874,54.854926 928.7504,52.787926 926.4924,50.756926 C 923.5514,48.107926 923.6584,49.326926 923.7134,44.944926 C 923.8544,34.367926 917.8754,25.731926 906.9164,23.431926 C 902.2604,22.454926 899.9294,22.156926 896.2994,19.334926 C 891.1194,15.307926 886.1024,15.428926 880.0014,13.401926 C 865.4774,8.574926 850.5664,1.151926 835.4414,0.783926 C 828.7244,0.619926 817.5674,4.763926 811.3024,2.192926 C 806.3274,0.151926 807.3914,-3.086074 801.0264,-1.749074 C 792.3224,0.078926 782.1654,0.590926 775.4194,-6.253074 C 768.6984,-13.073074 771.0334,-20.531074 778.7404,-24.946074 C 799.1304,-36.625074 814.1674,-27.009074 832.6544,-17.014074 C 838.0174,-14.116074 843.4534,-13.486074 849.3774,-12.291074 C 855.2954,-11.096074 861.0984,-10.403074 866.8444,-8.584074 C 871.9224,-6.976074 876.7964,-6.572074 881.6134,-4.389074 C 886.2064,-2.309074 891.0524,-0.613074 895.9744,0.482926 C 912.4364,4.147926 924.7604,15.649926 935.9914,27.905926 C 944.8564,37.577926 957.7184,53.363926 956.8874,67.031926 C 956.5144,73.144926 957.3044,76.267926 959.4784,81.660926 C 960.4114,83.975926 961.5474,87.842926 958.5584,88.668926 C 954.8084,89.706926 952.7974,82.298926 950.7704,80.266926 z " id="path4710"/>
      <path style="fill: rgb(183, 242, 250); fill-opacity: 1; stroke: rgb(0, 0, 0); stroke-width: 0.5267;" d="M 900.2684,16.863926 C 911.8534,10.412926 924.4154,2.565926 935.5344,13.807926 C 940.1244,18.448926 944.7454,23.156926 948.4664,28.545926 C 951.7144,33.249926 952.9344,38.143926 955.1544,43.192926 C 957.4514,48.416926 959.0144,52.085926 959.2044,58.007926 C 959.3664,63.076926 958.8224,68.225926 959.7784,73.240926 C 960.6334,77.711926 964.0144,83.324926 963.5944,87.800926 C 958.6394,89.260926 957.1454,84.370926 956.0064,80.801926 C 954.3264,75.528926 952.7174,70.190926 948.8184,66.087926 C 944.4744,61.515926 938.8514,60.648926 932.4574,61.183926 C 913.2834,62.789926 892.4784,68.031926 877.7864,81.221926 C 868.7364,89.345926 862.1544,99.874926 852.4004,107.26893 C 848.0334,110.57893 844.0764,113.76493 838.9234,115.43493 C 829.2354,118.57293 815.7454,118.56693 808.7694,110.32593 C 804.6484,105.45693 802.4744,98.610926 800.4684,92.586926 C 796.2554,79.938926 795.7494,66.459926 789.4554,54.479926 C 783.8354,43.778926 775.7474,33.846926 764.6474,28.564926 C 753.2904,23.163926 744.0004,19.393926 733.5964,28.736926 C 730.8364,31.215926 727.5714,36.420926 724.3194,37.908926 C 719.2934,40.206926 719.8704,35.005926 720.0424,30.421926 C 720.7504,11.435926 739.8974,8.564926 749.8474,-4.790074 C 752.0654,-7.769074 752.6304,-11.450074 754.2184,-14.489074 C 758.8424,-23.347074 770.9474,-27.088074 780.1334,-28.367074 C 791.3024,-29.921074 801.7634,-21.255074 808.2594,-12.856074 C 815.5344,-3.448074 818.1594,9.107926 820.3214,20.497926 C 821.9834,29.260926 822.5224,38.046926 824.2274,46.633926 C 825.6054,53.580926 826.8154,62.662926 826.2974,69.722926 C 826.1114,61.403926 825.4254,53.257926 824.8074,45.015926 C 823.9814,33.982926 824.5554,22.414926 822.0854,11.600926 C 819.6264,0.839926 814.1354,-9.394074 807.5894,-18.211074 C 804.5024,-22.368074 796.4394,-29.039074 791.0954,-28.972074 C 792.7094,-36.068074 806.4824,-35.028074 811.4174,-33.694074 C 831.8484,-28.171074 846.7764,-12.504074 868.8554,-11.645074 C 879.7954,-11.219074 893.1144,-16.432074 903.1164,-10.858074 C 906.1004,-9.196074 908.5264,-6.545074 911.3724,-4.666074 C 913.7264,-3.115074 919.1584,-0.437074 918.7424,3.082926 C 918.2974,6.854926 909.3784,10.050926 906.5484,11.576926 C 900.8594,14.639926 895.9084,18.701926 890.6794,22.454926 C 877.7144,31.753926 865.0604,45.242926 855.5814,58.042926 C 857.1434,53.526926 862.4934,48.654926 865.7474,45.252926 C 871.8034,38.914926 878.7814,32.522926 885.5364,26.901926 C 890.1104,23.099926 895.0664,19.761926 900.2684,16.863926 z " id="path4712"/>
      <path style="fill: rgb(189, 171, 223); fill-opacity: 1;" d="M 801.9474,70.311926 C 805.5394,78.767926 808.6774,87.199926 811.5924,95.884926 C 812.7734,99.402926 814.0274,108.37693 819.6734,106.85493 C 820.0264,102.85993 817.8704,97.806926 816.8414,93.836926 C 814.5904,85.149926 813.8714,76.171926 813.5874,67.164926 C 813.5324,74.212926 817.2184,82.615926 819.7934,89.042926 C 820.9824,92.010926 821.8984,96.378926 824.2114,98.267926 C 824.1854,93.983926 823.3994,89.610926 823.5664,85.255926 C 827.3694,87.091926 830.7924,92.054926 835.1654,89.263926 C 838.9574,86.844926 841.3784,79.369926 843.1904,75.458926 C 839.6244,82.548926 834.0584,89.360926 832.3644,97.518926 C 834.5444,97.971926 835.0464,95.836926 836.5094,94.460926 C 841.2254,90.029926 845.5424,85.547926 849.6954,80.576926 C 858.2424,70.347926 868.6954,63.601926 878.0094,54.472926 C 874.6064,58.794926 870.0684,62.084926 866.0774,65.832926 C 861.1554,70.459926 856.9384,75.786926 852.4954,80.869926 C 847.5824,86.490926 843.7064,93.046926 838.6824,98.535926 C 849.1594,92.957926 857.7044,81.303926 866.9644,73.689926 C 873.3694,68.424926 881.8474,61.832926 889.6894,59.010926 C 877.8884,68.716926 867.0054,79.053926 855.6934,89.270926 C 849.8284,94.570926 843.2554,98.173926 836.9764,102.84293 C 834.5744,104.62893 830.8144,107.04793 829.4664,109.80693 C 837.5574,105.37893 845.1324,101.72493 852.2534,95.563926 C 861.8314,87.276926 870.6014,77.775926 881.2164,70.746926 C 893.1874,62.817926 906.3434,57.870926 920.2794,54.597926 C 925.0974,53.464926 930.7864,51.064926 935.8374,51.652926 C 930.6004,49.529926 919.6804,51.168926 914.0244,51.970926 C 908.2164,52.796926 902.0674,54.992926 896.2054,54.644926 C 908.4104,46.965926 922.4144,39.485926 936.5704,36.295926 C 921.3594,42.268926 905.3334,46.168926 890.2124,52.476926 C 881.1614,56.253926 873.4184,62.760926 865.3724,67.931926 C 878.6564,55.192926 893.2554,42.428926 909.6704,33.877926 C 918.3654,29.349926 925.5024,25.511926 935.2594,25.297926 C 918.3904,25.069926 901.1014,34.314926 887.4394,43.254926 C 874.7834,51.534926 858.0684,61.589926 849.7704,74.744926 C 855.9924,66.319926 861.7164,57.852926 869.0564,50.165926 C 874.2814,44.693926 880.4024,40.482926 886.0044,35.506926 C 874.9544,43.777926 865.8134,53.658926 855.6114,62.836926 C 852.3114,65.804926 845.3044,69.616926 846.1164,62.229926 C 846.6824,57.062926 852.0774,49.772926 854.5984,45.374926 C 859.3904,37.028926 865.9534,29.010926 872.5684,22.032926 C 879.5404,14.675926 887.2024,6.818926 895.7354,1.362926 C 882.8934,6.098926 870.7874,20.216926 862.6884,30.729926 C 856.6534,38.561926 851.3834,47.230926 846.0864,55.211926 C 845.9244,51.724926 847.5784,48.446926 848.9344,45.267926 C 851.7544,38.658926 853.6394,31.838926 855.7234,24.972926 C 858.4704,15.927926 860.6354,5.679926 864.1004,-2.893074 C 863.6704,1.644926 859.7314,6.466926 858.1574,10.814926 C 855.3764,18.499926 852.6934,26.002926 850.3894,33.840926 C 846.7514,46.219926 841.9204,58.237926 838.3854,70.612926 C 840.6514,44.074926 845.4514,13.392926 836.6644,-12.008074 C 841.3094,3.847926 843.6344,21.852926 841.8204,38.446926 C 841.1834,44.282926 839.8674,50.278926 838.4894,55.973926 C 837.9724,58.114926 837.8104,60.254926 836.2334,61.737926 C 834.3584,35.759926 833.5204,10.494926 823.5864,-13.966074 C 826.0704,-6.219074 829.4344,1.091926 831.1884,9.269926 C 833.7724,21.313926 833.5594,33.857926 832.5014,46.061926 C 831.5114,57.483926 829.5744,68.826926 826.9614,79.794926 C 826.4824,79.814926 826.0434,79.832926 825.5614,79.814926 C 822.7874,74.494926 822.3544,68.618926 820.8734,62.780926 C 818.0804,51.765926 815.5454,39.897926 810.0814,29.815926 C 813.3734,40.827926 817.8304,53.737926 817.1394,65.354926 C 815.0814,62.195926 814.2184,58.078926 813.3114,54.378926 C 811.4264,46.679926 808.5224,40.295926 804.8284,33.291926 C 798.0404,20.426926 788.1954,1.496926 773.6284,-4.121074 C 783.2804,4.489926 792.0284,17.918926 797.6564,29.380926 C 804.6434,43.610926 809.5744,57.643926 812.0724,73.166926 C 803.1984,57.039926 794.9984,39.041926 783.6494,24.315926 C 778.8514,18.091926 773.2784,11.019926 766.4164,6.905926 C 764.1744,5.561926 757.7774,1.761926 755.4524,2.986926 C 759.7974,4.807926 762.8034,7.694926 765.8104,11.104926 C 761.6844,11.385926 757.3804,10.255926 753.1824,11.030926 C 749.7154,11.669926 746.3244,13.689926 743.0094,14.759926 C 748.8684,12.522926 756.4454,12.455926 762.4944,14.025926 C 767.3864,15.294926 772.5854,20.064926 776.1554,23.576926 C 788.9304,36.148926 795.0864,54.162926 801.9474,70.311926 z " id="path4714"/>
    </g>
    <g id="g4692" transform="matrix(-0.382514, -0.0952401, -0.0940308, 0.387433, 398.962, 547.804)">
	<path style="fill: rgb(239, 156, 34); stroke: rgb(0, 0, 0); stroke-width: 0.5267;" d="M 113.983,96.063 C 117.953,95.952 121.331,92.369 125.943,92.201 C 129.907,92.057 134.894,91.526 138.545,89.695 C 141.426,88.248 142.378,86.489 145.824,85.963 C 149.024,85.474 152.473,85.975 155.667,85.636 C 153.775,85.836 147.923,81.481 145.706,80.676 C 141.498,79.148 136.831,78.037 132.373,79.078 C 124.49,80.917 115.988,88.047 113.983,96.063 z " id="path4694"/>

	<path style="fill: rgb(239, 156, 34); stroke: rgb(0, 0, 0); stroke-width: 0.5267;" d="M 342.332,137.401 C 338.776,133.838 332.009,135.046 329.12,131.373 C 325.808,127.165 326.682,119.502 323.474,114.514 C 321.849,111.989 320.312,109.922 318.054,107.891 C 315.113,105.242 315.22,106.461 315.275,102.079 C 315.416,91.502 309.437,82.866 298.478,80.566 C 293.822,79.589 291.491,79.291 287.861,76.469 C 282.681,72.442 277.664,72.563 271.563,70.536 C 257.039,65.709 242.128,58.286 227.003,57.918 C 220.286,57.754 209.129,61.898 202.864,59.327 C 197.889,57.286 198.953,54.048 192.588,55.385 C 183.884,57.213 173.727,57.725 166.981,50.881 C 160.26,44.061 162.595,36.603 170.302,32.188 C 190.692,20.509 205.729,30.125 224.216,40.12 C 229.579,43.018 235.015,43.648 240.939,44.843 C 246.857,46.038 252.66,46.731 258.406,48.55 C 263.484,50.158 268.358,50.562 273.175,52.745 C 277.768,54.825 282.614,56.521 287.536,57.617 C 303.998,61.282 316.322,72.784 327.553,85.04 C 336.418,94.712 349.28,110.498 348.449,124.166 C 348.076,130.279 348.866,133.402 351.04,138.795 C 351.973,141.11 353.109,144.977 350.12,145.803 C 346.37,146.841 344.359,139.433 342.332,137.401 z " id="path4696"/>

	<path style="fill: rgb(242, 202, 32); stroke: rgb(0, 0, 0); stroke-width: 0.5267;" d="M 291.83,73.998 C 303.415,67.547 315.977,59.7 327.096,70.942 C 331.686,75.583 336.307,80.291 340.028,85.68 C 343.276,90.384 344.496,95.278 346.716,100.327 C 349.013,105.551 350.576,109.22 350.766,115.142 C 350.928,120.211 350.384,125.36 351.34,130.375 C 352.195,134.846 355.576,140.459 355.156,144.935 C 350.201,146.395 348.707,141.505 347.568,137.936 C 345.888,132.663 344.279,127.325 340.38,123.222 C 336.036,118.65 330.413,117.783 324.019,118.318 C 304.845,119.924 284.04,125.166 269.348,138.356 C 260.298,146.48 253.716,157.009 243.962,164.403 C 239.595,167.713 235.638,170.899 230.485,172.569 C 220.797,175.707 207.307,175.701 200.331,167.46 C 196.21,162.591 194.036,155.745 192.03,149.721 C 187.817,137.073 187.311,123.594 181.017,111.614 C 175.397,100.913 167.309,90.981 156.209,85.699 C 144.852,80.298 135.562,76.528 125.158,85.871 C 122.398,88.35 119.133,93.555 115.881,95.043 C 110.855,97.341 111.432,92.14 111.604,87.556 C 112.312,68.57 131.459,65.699 141.409,52.344 C 143.627,49.365 144.192,45.684 145.78,42.645 C 150.404,33.787 162.509,30.046 171.695,28.767 C 182.864,27.213 193.325,35.879 199.821,44.278 C 207.096,53.686 209.721,66.242 211.883,77.632 C 213.545,86.395 214.084,95.181 215.789,103.768 C 217.167,110.715 218.377,119.797 217.859,126.857 C 217.673,118.538 216.987,110.392 216.369,102.15 C 215.543,91.117 216.117,79.549 213.647,68.735 C 211.188,57.974 205.697,47.74 199.151,38.923 C 196.064,34.766 188.001,28.095 182.657,28.162 C 184.271,21.066 198.044,22.106 202.979,23.44 C 223.41,28.963 238.338,44.63 260.417,45.489 C 271.357,45.915 284.676,40.702 294.678,46.276 C 297.662,47.938 300.088,50.589 302.934,52.468 C 305.288,54.019 310.72,56.697 310.304,60.217 C 309.859,63.989 300.94,67.185 298.11,68.711 C 292.421,71.774 287.47,75.836 282.241,79.589 C 269.276,88.888 256.622,102.377 247.143,115.177 C 248.705,110.661 254.055,105.789 257.309,102.387 C 263.365,96.049 270.343,89.657 277.098,84.036 C 281.672,80.234 286.628,76.896 291.83,73.998 z " id="path4698"/>

	<path style="fill: rgb(229, 171, 5);" d="M 193.509,127.446 C 197.101,135.902 200.239,144.334 203.154,153.019 C 204.335,156.537 205.589,165.511 211.235,163.989 C 211.588,159.994 209.432,154.941 208.403,150.971 C 206.152,142.284 205.433,133.306 205.149,124.299 C 205.094,131.347 208.78,139.75 211.355,146.177 C 212.544,149.145 213.46,153.513 215.773,155.402 C 215.747,151.118 214.961,146.745 215.128,142.39 C 218.931,144.226 222.354,149.189 226.727,146.398 C 230.519,143.979 232.94,136.504 234.752,132.593 C 231.186,139.683 225.62,146.495 223.926,154.653 C 226.106,155.106 226.608,152.971 228.071,151.595 C 232.787,147.164 237.104,142.682 241.257,137.711 C 249.804,127.482 260.257,120.736 269.571,111.607 C 266.168,115.929 261.63,119.219 257.639,122.967 C 252.717,127.594 248.5,132.921 244.057,138.004 C 239.144,143.625 235.268,150.181 230.244,155.67 C 240.721,150.092 249.266,138.438 258.526,130.824 C 264.931,125.559 273.409,118.967 281.251,116.145 C 269.45,125.851 258.567,136.188 247.255,146.405 C 241.39,151.705 234.817,155.308 228.538,159.977 C 226.136,161.763 222.376,164.182 221.028,166.941 C 229.119,162.513 236.694,158.859 243.815,152.698 C 253.393,144.411 262.163,134.91 272.778,127.881 C 284.749,119.952 297.905,115.005 311.841,111.732 C 316.659,110.599 322.348,108.199 327.399,108.787 C 322.162,106.664 311.242,108.303 305.586,109.105 C 299.778,109.931 293.629,112.127 287.767,111.779 C 299.972,104.1 313.976,96.62 328.132,93.43 C 312.921,99.403 296.895,103.303 281.774,109.611 C 272.723,113.388 264.98,119.895 256.934,125.066 C 270.218,112.327 284.817,99.563 301.232,91.012 C 309.927,86.484 317.064,82.646 326.821,82.432 C 309.952,82.204 292.663,91.449 279.001,100.389 C 266.345,108.669 249.63,118.724 241.332,131.879 C 247.554,123.454 253.278,114.987 260.618,107.3 C 265.843,101.828 271.964,97.617 277.566,92.641 C 266.516,100.912 257.375,110.793 247.173,119.971 C 243.873,122.939 236.866,126.751 237.678,119.364 C 238.244,114.197 243.639,106.907 246.16,102.509 C 250.952,94.163 257.515,86.145 264.13,79.167 C 271.102,71.81 278.764,63.953 287.297,58.497 C 274.455,63.233 262.349,77.351 254.25,87.864 C 248.215,95.696 242.945,104.365 237.648,112.346 C 237.486,108.859 239.14,105.581 240.496,102.402 C 243.316,95.793 245.201,88.973 247.285,82.107 C 250.032,73.062 252.197,62.814 255.662,54.241 C 255.232,58.779 251.293,63.601 249.719,67.949 C 246.938,75.634 244.255,83.137 241.951,90.975 C 238.313,103.354 233.482,115.372 229.947,127.747 C 232.213,101.209 237.013,70.527 228.226,45.126 C 232.871,60.982 235.196,78.987 233.382,95.581 C 232.745,101.417 231.429,107.413 230.051,113.108 C 229.534,115.249 229.372,117.389 227.795,118.872 C 225.92,92.894 225.082,67.629 215.148,43.168 C 217.632,50.915 220.996,58.226 222.75,66.404 C 225.334,78.448 225.121,90.992 224.063,103.196 C 223.073,114.618 221.136,125.961 218.523,136.929 C 218.044,136.949 217.605,136.967 217.123,136.949 C 214.349,131.629 213.916,125.753 212.435,119.915 C 209.642,108.9 207.107,97.032 201.643,86.95 C 204.935,97.962 209.392,110.872 208.701,122.489 C 206.643,119.33 205.78,115.213 204.873,111.513 C 202.988,103.814 200.084,97.43 196.39,90.426 C 189.602,77.561 179.757,58.631 165.19,53.013 C 174.842,61.624 183.59,75.053 189.218,86.515 C 196.205,100.745 201.136,114.778 203.634,130.301 C 194.76,114.174 186.56,96.176 175.211,81.45 C 170.413,75.226 164.84,68.154 157.978,64.04 C 155.736,62.696 149.339,58.896 147.014,60.121 C 151.359,61.942 154.365,64.829 157.372,68.239 C 153.246,68.52 148.942,67.39 144.744,68.165 C 141.277,68.804 137.886,70.824 134.571,71.894 C 140.43,69.657 148.007,69.59 154.056,71.16 C 158.948,72.429 164.147,77.199 167.717,80.711 C 180.492,93.283 186.648,111.297 193.509,127.446 z " id="path4700"/>

</g>
    <path style="fill: rgb(63, 125, 58); fill-opacity: 1;" d="M 269.36593,591.25849 C 310.60145,623.45237 306.15662,678.79116 307.35411,723.27125 C 311.78052,718.94948 308.11725,720.67701 312.42122,717.40835 C 307.19969,630.27956 306.10863,616.69318 303.29318,587.50348 C 300.04611,615.51604 271.04522,568.38479 246.64378,571.17223 C 246.64572,571.17081 264.50184,587.46238 269.36593,591.25849 z " id="path4716" sodipodi:nodetypes="cccccc"/>
  </g>
</svg>